HIERARCHY
ROOT Hips
{
	OFFSET 0.000000 0.000000 0.000000 
	CHANNELS 6 Xposition Yposition Zposition Yrotation Zrotation Xrotation 
	JOINT Lumbar
	{
		OFFSET 0.000000 0.000000 0.000000 
		CHANNELS 3 Zrotation Xrotation Yrotation
		JOINT Neck
		{
			OFFSET 0.000000 0.445665 0.000000 
			CHANNELS 3 Zrotation Xrotation Yrotation
			End Site
			{
				OFFSET 0.000000 0.227535 0.000000 
			}
		}
		JOINT RightShoulder
		{
			OFFSET 0.019635 0.377685 0.194865 
			CHANNELS 3 Zrotation Xrotation Yrotation
			JOINT RightElbow
			{
				OFFSET 0.000000 -0.243375 0.000000 
				CHANNELS 2 Zrotation Yrotation
				JOINT RightWrist
				{
					OFFSET 0.000000 -0.264825 0.000000 
					CHANNELS 2 Zrotation Xrotation
					End Site
					{
						OFFSET 0.006600 -0.176220 0.000990 
					}
				}
			}
		}
		JOINT LeftShoulder
		{
			OFFSET 0.019635 0.377685 -0.194865 
			CHANNELS 3 Zrotation Xrotation Yrotation
			JOINT LeftElbow
			{
				OFFSET 0.000000 -0.243375 0.000000 
				CHANNELS 2 Zrotation Yrotation
				JOINT LeftWrist
				{
					OFFSET 0.000000 -0.264825 0.000000 
					CHANNELS 2 Zrotation Xrotation
					End Site
					{
						OFFSET 0.006600 -0.176220 -0.000990 
					}
				}
			}
		}
	}
	JOINT RightHip
	{
		OFFSET 0.052140 -0.069960 0.075570 
		CHANNELS 3 Zrotation Xrotation Yrotation
		JOINT RightKnee
		{
			OFFSET 0.000000 -0.402270 0.000000 
			CHANNELS 1 Zrotation
			JOINT RightAnkle
			{
				OFFSET 0.000000 -0.404085 0.000000 
				CHANNELS 3 Zrotation Xrotation Yrotation
				End Site
				{
					OFFSET 0.204105 -0.089430 0.008415 
				}
			}
		}
	}
	JOINT LeftHip
	{
		OFFSET 0.052140 -0.069960 -0.075570 
		CHANNELS 3 Zrotation Xrotation Yrotation
		JOINT LeftKnee
		{
			OFFSET 0.000000 -0.402270 0.000000 
			CHANNELS 1 Zrotation
			JOINT LeftAnkle
			{
				OFFSET 0.000000 -0.404085 0.000000 
				CHANNELS 3 Zrotation Xrotation Yrotation
				End Site
				{
					OFFSET 0.204105 -0.089430 -0.008415 
				}
			}
		}
	}
}
MOTION
Frames: 28
Frame Time: 0.02
1.12876 -0.23526 1.13469 539.36445 -10.44338 -5.35772 14.82527 1.50112 -7.25013 -23.32685 24.80816 -2.11994 2.46517 -6.03491 28.69018 121.74277 99.01138 16.78777 0.50225 15.47223 4.70686 -29.19039 107.92842 -61.26803 29.91748 5.5494 76.89843 -14.02861 -8.68056 -64.68508 -10.23179 -3.08809 -3.92026 81.32835 2.19388 6.92807 -68.75216 -11.15249 3.7525 4.30508
1.1287 -0.23535 1.13467 539.38887 -10.40683 -5.35286 14.73774 1.50317 -7.22788 -23.29212 24.86033 -2.11994 2.16981 -6.12589 28.47445 121.78337 98.86815 17.25816 0.40288 15.39123 4.61895 -29.33271 108.03398 -59.91255 31.59801 5.63756 76.8596 -14.0908 -8.76153 -64.70054 -10.22579 -3.08565 -3.91858 81.29575 2.154 6.88957 -68.76556 -11.15068 3.75372 4.30562
1.12873 -0.23544 1.13467 539.41626 -10.38252 -5.34872 14.6274 1.50267 -7.20693 -23.13003 24.95582 -2.11994 1.95504 -6.19866 28.13342 121.76252 98.72219 17.83748 0.29141 15.37725 4.44305 -29.45708 108.11744 -57.99869 33.84889 5.77149 76.83607 -14.1486 -8.83855 -64.70876 -10.2174 -3.08405 -3.91739 81.27695 2.10303 6.8385 -68.76882 -11.14731 3.75556 4.30643
1.12872 -0.23553 1.13467 539.44032 -10.35346 -5.34427 14.53309 1.50283 -7.18909 -23.03553 25.0268 -2.11994 1.71721 -6.27752 27.82527 121.75345 98.57239 18.39797 0.18311 15.34191 4.31384 -29.58532 108.19792 -56.45069 35.76665 5.87422 76.80595 -14.20568 -8.91586 -64.71999 -10.2089 -3.08193 -3.91584 81.25251 2.05844 6.79244 -68.77685 -11.14439 3.75744 4.30726
1.1287 -0.23563 1.13466 539.47221 -10.32006 -5.33962 14.4161 1.5046 -7.1561 -22.90305 25.11693 -2.11994 1.42539 -6.36418 27.61336 121.81044 98.44422 18.83431 0.08381 15.2748 4.15449 -29.73159 108.33359 -54.46222 37.97463 6.01676 76.77301 -14.27551 -9.00246 -64.73296 -10.20485 -3.08019 -3.91471 81.22453 2.00813 6.74834 -68.785 -11.14246 3.75811 4.30754
1.12871 -0.2357 1.13465 539.48883 -10.29806 -5.33564 14.3392 1.5028 -7.15476 -22.81834 25.17822 -2.11994 1.26437 -6.43103 27.1755 121.71815 98.26876 19.5495 -0.03655 15.28748 4.0384 -29.83836 108.35051 -53.23869 39.72675 6.09024 76.7492 -14.31704 -9.06724 -64.74036 -10.19139 -3.07801 -3.91294 81.20661 1.9676 6.69829 -68.79024 -11.13808 3.76131 4.30897
1.12875 -0.23566 1.13462 539.46092 -10.31599 -5.3328 14.39458 1.48928 -7.24086 -22.8955 25.1456 -2.11994 1.43926 -6.44489 26.11832 121.20301 97.98335 21.05147 -0.21461 15.50076 4.05481 -29.81178 108.02561 -54.35768 40.01728 5.94321 76.75776 -14.28441 -9.07835 -64.73409 -10.15008 -3.07351 -3.90872 81.22495 1.95057 6.6255 -68.7889 -11.12793 3.77225 4.31401
1.1288 -0.23559 1.13459 539.41787 -10.34332 -5.33067 14.48837 1.47272 -7.35854 -23.02458 25.08332 -2.11994 1.74358 -6.44005 24.84441 120.54475 97.64789 22.82151 -0.41262 15.79154 4.11935 -29.75087 107.58502 -56.24705 39.84069 5.72825 76.77343 -14.22301 -9.06661 -64.72237 -10.09984 -3.06869 -3.90394 81.25122 1.94458 6.54859 -68.78496 -11.11532 3.78555 4.32012
1.12884 -0.23554 1.13455 539.38291 -10.35883 -5.32865 14.5538 1.45927 -7.46155 -23.13068 25.03702 -2.11994 1.99165 -6.44587 23.68582 119.96855 97.32129 24.44082 -0.60017 16.04817 4.16779 -29.72438 107.21013 -57.71598 39.92534 5.55775 76.77877 -14.17239 -9.0608 -64.71314 -10.0554 -3.06468 -3.89982 81.26607 1.93788 6.48019 -68.78284 -11.10338 3.79715 4.32538
1.12888 -0.23545 1.13451 539.34308 -10.40574 -5.32504 14.6635 1.43859 -7.56631 -23.23121 24.98134 -2.11994 2.23141 -6.44228 22.4473 119.31743 97.04931 26.18811 -0.79525 16.30322 4.18951 -29.61868 106.78023 -59.45361 39.83441 5.3341 76.81382 -14.13023 -9.07214 -64.70372 -10.00371 -3.05805 -3.89408 81.31346 1.91374 6.38474 -68.77798 -11.09305 3.81133 4.33213
1.12894 -0.23544 1.13448 539.30959 -10.39042 -5.32463 14.69164 1.43207 -7.67448 -23.35554 24.93799 -2.11994 2.51856 -6.45363 21.33105 118.79033 96.65658 27.72839 -0.97768 16.57845 4.27855 -29.66902 106.43629 -60.83327 39.97649 5.20108 76.78943 -14.06502 -9.04434 -64.69333 -9.96481 -3.05661 -3.89148 81.29591 1.9273 6.34304 -68.77799 -11.07905 3.82078 4.3361
1.12903 -0.23568 1.13447 539.29883 -10.19139 -5.33524 14.47475 1.46732 -7.7881 -23.54892 24.93214 -2.11994 2.90056 -6.51488 20.5576 118.63121 95.90072 28.65303 -1.1336 16.89499 4.54961 -30.16671 106.37079 -60.93349 41.00291 5.36433 76.59117 -13.93161 -8.89687 -64.68306 -9.96538 -3.07121 -3.89871 81.08757 2.05466 6.46672 -68.79519 -11.05334 3.81589 4.33156
1.12914 -0.236 1.13447 539.29472 -9.93114 -5.3486 14.17656 1.51656 -7.90335 -23.76226 24.94003 -2.11994 3.3258 -6.59114 19.92382 118.60393 95.03274 29.35511 -1.27367 17.22773 4.88548 -30.82069 106.39388 -60.66532 42.25727 5.61601 76.33431 -13.77806 -8.71379 -64.67182 -9.97882 -3.09076 -3.90896 80.81533 2.21761 6.64217 -68.81692 -11.0244 3.80627 4.32429
1.12923 -0.23627 1.13446 539.2865 -9.70512 -5.35912 13.9225 1.55817 -8.01537 -23.95643 24.94417 -2.11994 3.73418 -6.65799 19.25868 118.5228 94.24387 30.14489 -1.41207 17.55001 5.18723 -31.39859 106.36768 -60.6401 43.3166 5.80695 76.1094 -13.64152 -8.55863 -64.66003 -9.98504 -3.10698 -3.91717 80.57856 2.35585 6.78298 -68.83454 -10.99841 3.7993 4.31867
1.12934 -0.23659 1.13446 539.28215 -9.45236 -5.37633 13.63932 1.60513 -8.13899 -24.19439 24.93758 -2.11994 4.13696 -6.73514 18.45213 118.411 93.33515 31.00247 -1.58817 17.88904 5.5113 -31.99876 106.37402 -60.33656 44.73052 6.07989 75.86212 -13.47129 -8.35414 -64.652 -9.99656 -3.12769 -3.9281 80.31494 2.52937 6.96876 -68.86049 -10.96622 3.79039 4.31143
1.12943 -0.23683 1.13445 539.27176 -9.24066 -5.38032 13.39714 1.64421 -8.23847 -24.34595 24.95595 -2.11994 4.55793 -6.79459 17.97384 118.3963 92.64914 31.66041 -1.68231 18.19483 5.8024 -32.58742 106.33704 -60.49765 45.48548 6.20693 75.64768 -13.3662 -8.24293 -64.63629 -10.00042 -3.14031 -3.93416 80.09193 2.63913 7.07545 -68.87046 -10.94601 3.78427 4.30682
1.12949 -0.23682 1.13444 539.24107 -9.15715 -5.3465 13.28645 1.65884 -8.27018 -24.24754 25.04913 -2.11994 5.03524 -6.8022 18.38937 118.61878 92.61465 31.83531 -1.54792 18.41426 5.99731 -33.1296 106.14331 -62.18257 44.19217 5.88336 75.53616 -13.45154 -8.40935 -64.59702 -9.9785 -3.12863 -3.92543 79.99709 2.55148 6.93148 -68.83305 -10.96155 3.78787 4.31075
1.12955 -0.23672 1.13442 539.20452 -9.11709 -5.29941 13.21992 1.66495 -8.27743 -24.06249 25.16556 -2.11994 5.52557 -6.7914 19.12769 118.93531 92.80717 31.81156 -1.33213 18.59745 6.15457 -33.65072 105.90649 -64.31756 42.25741 5.41484 75.46014 -13.60218 -8.66884 -64.55061 -9.94878 -3.10878 -3.91182 79.94528 2.40049 6.70944 -68.77987 -10.98896 3.79431 4.3173
1.1296 -0.23666 1.13439 539.17202 -9.05721 -5.25874 13.13405 1.67449 -8.29628 -23.92104 25.26521 -2.11994 5.99835 -6.78867 19.705 119.2082 92.88945 31.8702 -1.15808 18.79076 6.32179 -34.16603 105.7 -66.14159 40.73835 5.03046 75.36915 -13.71945 -8.87848 -64.50916 -9.92363 -3.09312 -3.90084 79.87336 2.287 6.53646 -68.73531 -11.0097 3.79887 4.3222
1.12967 -0.23659 1.13439 539.13388 -8.99545 -5.2164 13.04236 1.6863 -8.31351 -23.76226 25.39084 -2.11994 6.52188 -6.78781 20.34678 119.48781 92.99577 31.96059 -0.96545 19.01176 6.52145 -34.75114 105.45081 -68.39539 38.72313 4.57312 75.27098 -13.85178 -9.11893 -64.4603 -9.89451 -3.07554 -3.88821 79.80122 2.13892 6.30941 -68.68461 -11.03562 3.80569 4.32892
1.12971 -0.23653 1.13434 539.106 -8.94879 -5.17454 12.97425 1.69125 -8.32783 -23.61902 25.46859 -2.11994 6.94214 -6.77838 20.93003 119.77603 93.10974 31.93295 -0.78987 19.16589 6.64381 -35.18457 105.27962 -69.87463 37.5604 4.23078 75.19723 -13.96829 -9.31754 -64.42534 -9.87176 -3.06004 -3.87784 79.74101 2.04621 6.17392 -68.64308 -11.05374 3.80863 4.33256
1.12968 -0.23651 1.13416 539.10809 -8.93304 -5.13561 12.96151 1.67864 -8.344 -23.53714 25.40049 -2.11994 7.0741 -6.75037 21.26188 120.04864 93.16921 31.69791 -0.70487 19.14711 6.56105 -35.19616 105.33102 -69.02742 39.13645 4.25366 75.18022 -14.02706 -9.38003 -64.42905 -9.86732 -3.05154 -3.87451 79.7 2.13199 6.32631 -68.62905 -11.04626 3.79935 4.32645
1.12962 -0.2365 1.13393 539.12065 -8.93137 -5.09791 12.97123 1.65947 -8.35737 -23.47424 25.28464 -2.11994 7.10133 -6.71386 21.523 120.32961 93.23238 31.34205 -0.63683 19.06167 6.40162 -35.05596 105.46296 -67.40114 41.55413 4.3948 75.18721 -14.06734 -9.39686 -64.44717 -9.86968 -3.04549 -3.87365 79.6704 2.27378 6.57055 -68.625 -11.03075 3.78623 4.31726
1.12958 -0.23649 1.13373 539.12819 -8.92358 -5.06073 12.97031 1.64367 -8.3694 -23.4044 25.19598 -2.11994 7.17641 -6.68124 21.82547 120.61622 93.30817 30.99285 -0.54401 19.00476 6.27757 -34.99058 105.55934 -66.18446 43.4294 4.47306 75.18487 -14.115 -9.43352 -64.45978 -9.86969 -3.03877 -3.87192 79.63804 2.38295 6.76166 -68.61759 -11.01974 3.77543 4.30991
1.12953 -0.23647 1.13351 539.13649 -8.91584 -5.0186 12.9725 1.62592 -8.39146 -23.32462 25.08565 -2.11994 7.25138 -6.64927 22.10872 120.86425 93.33337 30.82768 -0.51507 18.95399 6.15005 -34.90241 105.64841 -64.74984 45.93629 4.58396 75.17716 -14.16949 -9.47777 -64.46816 -9.86645 -3.02996 -3.86902 79.59704 2.51958 6.99704 -68.60507 -11.00563 3.76235 4.30084
1.12949 -0.23647 1.13332 539.14594 -8.9111 -4.98714 12.97326 1.61083 -8.39248 -23.27093 25.00798 -2.11994 7.30094 -6.61243 22.40058 121.19598 93.45946 30.26891 -0.36488 18.87511 6.01196 -34.82281 105.77422 -63.57699 47.36255 4.658 75.18579 -14.20424 -9.49353 -64.48835 -9.87149 -3.02612 -3.86914 79.57602 2.61389 7.16445 -68.60528 -10.99582 3.75298 4.29452
1.12948 -0.2365 1.13321 539.1546 -8.90871 -4.98572 12.96244 1.60417 -8.33484 -23.28742 25.03919 -2.11994 7.31136 -6.5804 22.81911 121.73347 93.87487 28.52157 0.18152 18.73403 5.86494 -34.82912 105.96618 -63.32836 45.36719 4.5916 75.23474 -14.19147 -9.44765 -64.54231 -9.8996 -3.03612 -3.87751 79.60924 2.57143 7.10959 -68.64268 -11.00047 3.75547 4.29702
1.12947 -0.23655 1.13314 539.16424 -8.90928 -4.99488 12.9498 1.60052 -8.25662 -23.32953 25.10349 -2.11994 7.29902 -6.54167 23.23006 122.35839 94.38267 26.40997 0.83955 18.56691 5.71039 -34.8439 106.19548 -63.36646 42.29853 4.48637 75.29914 -14.15897 -9.37361 -64.60695 -9.93546 -3.05094 -3.88873 79.66191 2.48587 6.98562 -68.69195 -11.00953 3.76168 4.30227
